<mxfile host="app.diagrams.net" modified="2021-06-18T01:41:00.089Z" agent="5.0 (Windows NT 10.0; Win64; x64) AppleWebKit/537.36 (KHTML, like Gecko) Chrome/91.0.4472.101 Safari/537.36" etag="JFU4vvKJC2Z4nCDJVLLL" version="14.7.8" type="github">
  <diagram id="C5RBs43oDa-KdzZeNtuy" name="Page-1">
    <mxGraphModel dx="1808" dy="1717" grid="1" gridSize="10" guides="1" tooltips="1" connect="1" arrows="1" fold="1" page="1" pageScale="1" pageWidth="827" pageHeight="1169" math="0" shadow="0">
      <root>
        <mxCell id="WIyWlLk6GJQsqaUBKTNV-0" />
        <mxCell id="WIyWlLk6GJQsqaUBKTNV-1" parent="WIyWlLk6GJQsqaUBKTNV-0" />
        <mxCell id="bqIWzFIGUjrFqrdwkR5o-15" style="rounded=0;orthogonalLoop=1;jettySize=auto;html=1;entryX=0.438;entryY=0.909;entryDx=0;entryDy=0;entryPerimeter=0;startArrow=none;" edge="1" parent="WIyWlLk6GJQsqaUBKTNV-1" source="bqIWzFIGUjrFqrdwkR5o-18" target="bqIWzFIGUjrFqrdwkR5o-3">
          <mxGeometry relative="1" as="geometry" />
        </mxCell>
        <mxCell id="bqIWzFIGUjrFqrdwkR5o-22" style="edgeStyle=none;rounded=0;orthogonalLoop=1;jettySize=auto;html=1;endSize=6;strokeWidth=1;startArrow=ERone;startFill=0;endArrow=ERmany;endFill=0;" edge="1" parent="WIyWlLk6GJQsqaUBKTNV-1" source="bqIWzFIGUjrFqrdwkR5o-0" target="bqIWzFIGUjrFqrdwkR5o-6">
          <mxGeometry relative="1" as="geometry" />
        </mxCell>
        <mxCell id="bqIWzFIGUjrFqrdwkR5o-0" value="Customer" style="swimlane;childLayout=stackLayout;horizontal=1;startSize=30;horizontalStack=0;fillColor=#008cff;fontColor=#FFFFFF;rounded=1;fontSize=14;fontStyle=0;strokeWidth=2;resizeParent=0;resizeLast=1;shadow=0;dashed=0;align=center;" vertex="1" parent="WIyWlLk6GJQsqaUBKTNV-1">
          <mxGeometry x="10" y="330" width="160" height="85" as="geometry" />
        </mxCell>
        <mxCell id="bqIWzFIGUjrFqrdwkR5o-1" value="Bank account" style="align=left;strokeColor=none;fillColor=none;spacingLeft=4;fontSize=12;verticalAlign=top;resizable=0;rotatable=0;part=1;" vertex="1" parent="bqIWzFIGUjrFqrdwkR5o-0">
          <mxGeometry y="30" width="160" height="55" as="geometry" />
        </mxCell>
        <mxCell id="bqIWzFIGUjrFqrdwkR5o-2" value="Bank" style="swimlane;childLayout=stackLayout;horizontal=1;startSize=30;horizontalStack=0;fillColor=#008cff;fontColor=#FFFFFF;rounded=1;fontSize=14;fontStyle=0;strokeWidth=2;resizeParent=0;resizeLast=1;shadow=0;dashed=0;align=center;" vertex="1" parent="WIyWlLk6GJQsqaUBKTNV-1">
          <mxGeometry x="20" y="80" width="160" height="85" as="geometry" />
        </mxCell>
        <mxCell id="bqIWzFIGUjrFqrdwkR5o-3" value="location" style="align=left;strokeColor=none;fillColor=none;spacingLeft=4;fontSize=12;verticalAlign=top;resizable=0;rotatable=0;part=1;" vertex="1" parent="bqIWzFIGUjrFqrdwkR5o-2">
          <mxGeometry y="30" width="160" height="55" as="geometry" />
        </mxCell>
        <mxCell id="bqIWzFIGUjrFqrdwkR5o-5" value="Account" style="swimlane;childLayout=stackLayout;horizontal=1;startSize=20;horizontalStack=0;fillColor=#008cff;fontColor=#FFFFFF;rounded=1;fontSize=14;fontStyle=0;strokeWidth=2;resizeParent=0;resizeLast=1;shadow=0;dashed=0;align=center;" vertex="1" parent="WIyWlLk6GJQsqaUBKTNV-1">
          <mxGeometry x="329" y="325" width="170" height="90" as="geometry" />
        </mxCell>
        <mxCell id="bqIWzFIGUjrFqrdwkR5o-6" value="Bank account" style="align=left;strokeColor=none;fillColor=none;spacingLeft=4;fontSize=12;verticalAlign=top;resizable=0;rotatable=0;part=1;" vertex="1" parent="bqIWzFIGUjrFqrdwkR5o-5">
          <mxGeometry y="20" width="170" height="70" as="geometry" />
        </mxCell>
        <mxCell id="bqIWzFIGUjrFqrdwkR5o-8" value="Managers" style="swimlane;childLayout=stackLayout;horizontal=1;startSize=20;horizontalStack=0;fillColor=#008cff;fontColor=#FFFFFF;rounded=1;fontSize=14;fontStyle=0;strokeWidth=2;resizeParent=0;resizeLast=1;shadow=0;dashed=0;align=center;" vertex="1" parent="WIyWlLk6GJQsqaUBKTNV-1">
          <mxGeometry x="350" y="190" width="170" height="90" as="geometry" />
        </mxCell>
        <mxCell id="bqIWzFIGUjrFqrdwkR5o-9" value="Bank account" style="align=left;strokeColor=none;fillColor=none;spacingLeft=4;fontSize=12;verticalAlign=top;resizable=0;rotatable=0;part=1;" vertex="1" parent="bqIWzFIGUjrFqrdwkR5o-8">
          <mxGeometry y="20" width="170" height="70" as="geometry" />
        </mxCell>
        <mxCell id="bqIWzFIGUjrFqrdwkR5o-10" value="Machines" style="swimlane;childLayout=stackLayout;horizontal=1;startSize=20;horizontalStack=0;fillColor=#008cff;fontColor=#FFFFFF;rounded=1;fontSize=14;fontStyle=0;strokeWidth=2;resizeParent=0;resizeLast=1;shadow=0;dashed=0;align=center;" vertex="1" parent="WIyWlLk6GJQsqaUBKTNV-1">
          <mxGeometry x="190" y="-40" width="170" height="90" as="geometry" />
        </mxCell>
        <mxCell id="bqIWzFIGUjrFqrdwkR5o-11" value="location" style="align=left;strokeColor=none;fillColor=none;spacingLeft=4;fontSize=12;verticalAlign=top;resizable=0;rotatable=0;part=1;" vertex="1" parent="bqIWzFIGUjrFqrdwkR5o-10">
          <mxGeometry y="20" width="170" height="70" as="geometry" />
        </mxCell>
        <mxCell id="bqIWzFIGUjrFqrdwkR5o-13" value="Branch" style="swimlane;childLayout=stackLayout;horizontal=1;startSize=20;horizontalStack=0;fillColor=#008cff;fontColor=#FFFFFF;rounded=1;fontSize=14;fontStyle=0;strokeWidth=2;resizeParent=0;resizeLast=1;shadow=0;dashed=0;align=center;" vertex="1" parent="WIyWlLk6GJQsqaUBKTNV-1">
          <mxGeometry x="-50" y="-110" width="170" height="90" as="geometry" />
        </mxCell>
        <mxCell id="bqIWzFIGUjrFqrdwkR5o-14" value="location" style="align=left;strokeColor=none;fillColor=none;spacingLeft=4;fontSize=12;verticalAlign=top;resizable=0;rotatable=0;part=1;" vertex="1" parent="bqIWzFIGUjrFqrdwkR5o-13">
          <mxGeometry y="20" width="170" height="70" as="geometry" />
        </mxCell>
        <mxCell id="bqIWzFIGUjrFqrdwkR5o-18" value="Client" style="text;strokeColor=none;fillColor=none;align=left;verticalAlign=top;spacingLeft=4;spacingRight=4;overflow=hidden;rotatable=0;points=[[0,0.5],[1,0.5]];portConstraint=eastwest;" vertex="1" parent="WIyWlLk6GJQsqaUBKTNV-1">
          <mxGeometry x="70" y="230" width="60" height="26" as="geometry" />
        </mxCell>
        <mxCell id="bqIWzFIGUjrFqrdwkR5o-20" value="" style="rounded=0;orthogonalLoop=1;jettySize=auto;html=1;entryX=0.438;entryY=0.909;entryDx=0;entryDy=0;entryPerimeter=0;endArrow=none;" edge="1" parent="WIyWlLk6GJQsqaUBKTNV-1">
          <mxGeometry relative="1" as="geometry">
            <mxPoint x="90" y="326" as="sourcePoint" />
            <mxPoint x="96.27999999999997" y="249.6339999999999" as="targetPoint" />
          </mxGeometry>
        </mxCell>
        <mxCell id="bqIWzFIGUjrFqrdwkR5o-23" value="" style="endArrow=ERmany;html=1;endSize=6;strokeWidth=1;entryX=0.14;entryY=-0.014;entryDx=0;entryDy=0;entryPerimeter=0;startArrow=ERmany;startFill=0;endFill=0;" edge="1" parent="WIyWlLk6GJQsqaUBKTNV-1" target="bqIWzFIGUjrFqrdwkR5o-5">
          <mxGeometry width="50" height="50" relative="1" as="geometry">
            <mxPoint x="180" y="150" as="sourcePoint" />
            <mxPoint x="230" y="100" as="targetPoint" />
          </mxGeometry>
        </mxCell>
      </root>
    </mxGraphModel>
  </diagram>
</mxfile>
